<svg xmlns="http://www.w3.org/2000/svg" viewBox="0 0 620 300" fill="none"><defs><linearGradient id="shield" x1="230" y1="20" x2="390" y2="270" gradientUnits="userSpaceOnUse"><stop stop-color="#609cff" stop-opacity=".22"/><stop offset="1" stop-color="#226e9b" stop-opacity=".06"/></linearGradient><linearGradient id="edge" x1="245" y1="30" x2="380" y2="250" gradientUnits="userSpaceOnUse"><stop stop-color="#a2c5ff"/><stop offset="1" stop-color="#5099c1" stop-opacity=".4"/></linearGradient><filter id="glow"><feGaussianBlur stdDeviation="25"/></filter></defs><ellipse cx="310" cy="160" rx="150" ry="100" fill="#4688ec" opacity=".1" filter="url(#glow)"/><ellipse cx="310" cy="155" rx="230" ry="96" stroke="#7faebc" stroke-opacity=".17" transform="rotate(-12 310 155)"/><ellipse cx="310" cy="155" rx="190" ry="129" stroke="#7faebc" stroke-opacity=".12" transform="rotate(18 310 155)"/><path d="M310 24l95 39v79c0 70-95 124-95 124s-95-54-95-124V63l95-39z" fill="url(#shield)" stroke="url(#edge)" stroke-width="2"/><path d="M310 43l78 32v67c0 54-78 103-78 103s-78-49-78-103V75l78-32z" stroke="#a7c7d4" stroke-opacity=".2"/><g stroke="#e5eee5" stroke-width="2.5" stroke-linecap="round" stroke-linejoin="round"><path d="M266 128l44-34 44 34M276 123v67h68v-67M300 190v-27h20v27"/><path d="M303 137c-5-9-17-8-17 1 0 8 17 18 17 18s17-10 17-18c0-9-12-10-17-1" transform="translate(7 -2) scale(.99)"/></g><g><rect x="84" y="111" width="67" height="67" rx="19" fill="#153b4a" stroke="#7aafcf" stroke-opacity=".4"/><g stroke="#c6ddfa" stroke-width="2" stroke-linecap="round"><circle cx="113" cy="133" r="7"/><path d="M100 159v-5c0-15 26-15 26 0v5h-26M129 128c9 0 9 12 0 12M134 149c8 0 8 9 8 10"/></g><rect x="470" y="92" width="67" height="67" rx="19" fill="#153b4a" stroke="#7aafcf" stroke-opacity=".4"/><g stroke="#c6ddfa" stroke-width="2" stroke-linecap="round" stroke-linejoin="round"><path d="M488 111h27v32h-27zM495 120h13M495 126h8M496 135l4 4 8-8"/></g></g><circle cx="196" cy="70" r="4" fill="#90bbfa"/><circle cx="432" cy="224" r="4" fill="#90bbfa"/><circle cx="155" cy="215" r="2" fill="#adcbbf"/><circle cx="458" cy="49" r="2" fill="#adcbbf"/></svg>
